<svg t="1766562549222" class="icon" viewBox="0 0 1104 1024" version="1.1" xmlns="http://www.w3.org/2000/svg" p-id="1747" width="200" height="200">
  <g transform="translate(1104,0) scale(-1,1)">
    <path d="M1056.616352 409.901582c-23.970409 0.945789-67.351809 30.033277-99.406041 62.087509-108.065368 108.074291-229.880373-4.662028-229.880373-144.710248 0-167.886551 129.443779-230.835085 129.443779-230.835086 15.270931-15.275392-11.791139-37.38099-54.713028-46.142926 0 0-510.182032-121.583019-619.697313 272.119687-40.668947 146.200313-94.552178 165.919131-124.099176 183.554535-17.073284 5.763962-25.576467 9.26606-32.826033 11.434238-17.001904 5.094772-13.455193 28.164004-8.489798 39.040583 4.791405 10.501832 14.467902 17.434647 26.723013 21.891457 0.745032 2.56077 1.534677 5.201842 2.413548 7.990136 23.948103 76.211893 95.502429 34.592696 148.172194 125.718618 25.228488 43.657998 53.325573 79.602459 84.041424 107.525554l-0.008923-0.004461s69.756434 67.052904 180.021209 116.907607c145.785415 65.910818 363.361603 116.149191 312.24882 3.725161-48.05235-105.683049-11.246864-205.624443 34.918369-245.111152 79.879058-68.315443 115.02049-9.752338 115.020489-9.752339 32.388828 42.011789 82.154306 99.240974 120.14649 92.517839 30.657854-5.415983-5.166152-52.477931-5.166152-182.76489-0.013384-145.870179 45.107911-186.142072 21.137502-185.191822z" fill="#6EC9F0" p-id="1748"></path>
    <path d="M353.542345 512.769569c0-210.148172 115.40862-464.003416 230.406803-476.30314-56.479691 5.920107-87.088472 6.91497-142.238704 33.263237-85.611791 42.266082-181.819101 278.561763-181.8191 451.966907 0 116.149191 29.279322 304.249761 87.284767 341.095398 31.188746 24.273776 80.374259 58.215126 142.354697 86.642345a944.897203 944.897203 0 0 0 16.377326 7.307562c-132.160693-53.976918-152.365789-282.121857-152.365789-443.972309z" fill="#F0F0FF" p-id="1749"></path>
    <path d="M578.078116 532.408084c0-197.464778 128.221391-446.073567 281.167145-446.073567-10.252001-8.463031-35.890925-31.666102-57.197956-36.015841 0 0 18.857793 1.079628-35.306499-4.148982-136.037537 0-276.915554 240.060994-276.915554 486.242852 0 187.168165 102.636001 385.574271 224.04057 474.259877 46.321377 0 82.680736-9.270521 56.68491-66.455093-0.356902-0.776261-0.660268-1.548061-1.008248-2.324322-78.629902-78.643286-191.464369-243.094658-191.464368-405.484924zM1056.616352 409.901582c-21.597013 0.852103-58.906623 24.550374-89.524325 52.674227-1.003786 9.399898 0.727187-9.515891 0 0-38.759523 59.615965-27.066531 247.078573 14.878339 290.326135 20.138177 17.028672 40.718021 28.146159 58.661252 24.969733 30.653393-5.420444-5.166152-52.477931-5.166151-182.76489 0-145.883563 45.121295-186.155456 21.150885-185.205205z" fill="#F0F0FF" p-id="1750"></path>
    <path d="M512.158375 501.379944c0-368.05486 289.897853-455.005032 289.897853-455.005032-0.637962-0.249831-1.275924-0.472895-1.918347-0.713803-5.175074-0.611194-15.119248-1.655132-33.397075-3.421795-136.037537 0-276.915554 240.060994-276.915554 486.242852 0 180.44949 95.408742 371.307126 211.05381 464.253247 6.227934 4.07314 9.805874 6.076251 9.805874 6.076251s-198.526561-129.37686-198.526561-497.43172z" fill="#FFFFFF" opacity=".74" p-id="1751"></path>
    <path d="M445.462373 67.998693c-1.258078 0.588888-2.467083 1.119779-3.751929 1.735434-85.611791 42.26162-181.819101 278.557302-181.8191 451.962446 0 57.898375 7.280794 133.664141 21.76208 199.673107 14.093155 46.932571 27.664342 84.371558 36.234443 106.735909 1.151008 2.074491 2.328783 4.059757 3.515482 6.004871-133.035102-406.894685 36.305824-666.130222 124.059024-766.111767z" fill="#FFFFFF" p-id="1752"></path>
    <path d="M1056.616352 409.901582c-23.970409 0.945789-67.351809 30.033277-99.406041 62.087509-78.527293 78.531754-164.295228 40.454806-205.325537-39.955144l-11.376241 3.461947s114.204077 155.858965 208.863325 77.929482c33.990424-27.981092 69.725205-43.202949 101.587603-51.268927 10.265385-39.500094 19.522522-52.803604 5.656891-52.254867z" fill="#FFFFFF" opacity=".24" p-id="1753"></path>
    <path d="M32.460208 515.080508l0.049074-0.017845-0.049074 0.017845zM802.056228 50.300831S291.874196-71.282188 182.358914 322.420518c-40.668947 146.200313-94.552178 165.919131-124.099176 183.554535-11.96959 4.03745-19.683128 6.95066-25.745995 9.08761 0.022306 0 74.137402-5.714888 131.504886-62.854848a47.856054 47.856054 0 0 0 36.970553 17.412341c26.486566 0 47.958664-21.472097 47.958664-47.958664 0-22.426809-15.418153-41.204299-36.216598-46.450754a244.424117 244.424117 0 0 0 6.522378-20.048952c40.847398-148.756621 266.58325-324.138108 555.231947-236.447364l56.600145-59.553507c-8.391651-3.586862-18.201986-6.647294-29.02949-8.860084z" fill="#FFFFFF" opacity=".3" p-id="1754"></path>
    <path d="M200.850883 419.591463m-20.820752 0a20.820752 20.820752 0 1 0 41.641504 0 20.820752 20.820752 0 1 0-41.641504 0Z" fill="#6E6E96" p-id="1755"></path>
    <path d="M1040.63608 719.857309c-15.083557 2.672301-32.018542-4.760176-48.984756-17.296348-46.410602-46.410602-42.279466-189.140046-42.279466-189.140046-14.133307 68.333288-14.079771 112.098357-7.762611 140.106216a718.068339 718.068339 0 0 1-21.115196-26.192122s-35.141432-58.567566-115.02049 9.752339c-35.373418 30.25634-65.197015 96.011014-55.623127 172.642266 6.549146-50.89418 29.596072-92.379539 55.623127-114.645743 79.879058-68.315443 115.02049-9.752338 115.02049-9.752338 32.388828 42.011789 82.154306 99.240974 120.14649 92.517838 17.862929-3.154119 13.147366-20.495079 6.10748-60.155778a17.729091 17.729091 0 0 1-6.111941 2.163716zM732.023195 184.732311c-19.02286 37.809272-32.491437 81.868785-32.491437 130.969533 0 66.147266 33.383691 124.754983 79.995051 156.818138-31.670563-34.900523-52.196871-87.762124-52.196871-145.245601 0-167.886551 129.443779-230.835085 129.443779-230.835085 11.420854-11.420854-0.838719-26.660556-25.69246-37.282842a465.903917 465.903917 0 0 0-46.571208 47.35193c-30.470481 19.428835-233.422623 158.8614-221.042596 418.873198 13.383813 281.060075 204.799108 409.500068 204.799108 409.500068l-17.72463-61.837678s-296.072252-312.926934-18.518736-688.311661z m324.593157 225.169271c-2.275248 0.089225-4.769099 0.508585-7.365558 1.084089-6.941738 28.578902-13.780866 69.310307-13.780866 126.111209 0 10.238617 0.240909 19.90173 0.637962 29.127639 5.317835-122.350358 42.810357-157.21073 20.508462-156.322937z m-288.354252 524.980068c-40.468189 36.439662-196.817894-5.255377-309.96465-56.408311a689.538511 689.538511 0 0 1-26.134126-12.562939C276.406969 454.817659 497.833234 111.44255 497.833234 111.44255l-38.964741 12.393411c-220.556317 352.364569-68.681267 719.152428-68.641116 719.246115-70.091029-41.297986-111.951135-81.511883-111.951135-81.511883l0.008922 0.004461c-30.715851-27.923095-58.812936-63.863095-84.041424-107.525554-52.669766-91.125922-124.224092-49.506725-148.172194-125.718617a372.391215 372.391215 0 0 1-2.413548-7.990137 63.974627 63.974627 0 0 1-11.153177-5.282145c-2.591998 0.910099-4.907398 1.695283-7.075576 2.342168-17.001904 5.094772-13.455193 28.164004-8.489799 39.040582 4.791405 10.501832 14.467902 17.434647 26.723014 21.891457 0.745032 2.56077 1.534677 5.201842 2.413547 7.990137 23.948103 76.211893 95.502429 34.592696 148.172195 125.718617 25.228488 43.657998 53.325573 79.602459 84.041423 107.525554l-0.008922-0.004461s69.756434 67.052904 180.021208 116.907607c145.785415 65.910818 363.361603 116.149191 312.248821 3.725162-0.80749-1.771125-1.530216-3.537788-2.288632-5.313374z m-377.999033-91.777268l40.526186 22.114521a735.09255 735.09255 0 0 1-40.526186-22.114521z" fill="#6E6E96" opacity=".15" p-id="1756"></path>
  </g>
</svg>
